<?xml version="1.0" encoding="utf-8"?>
<!-- Generator: Adobe Illustrator 25.2.1, SVG Export Plug-In . SVG Version: 6.00 Build 0)  -->
<svg version="1.1" id="Layer_1" xmlns="http://www.w3.org/2000/svg" xmlns:xlink="http://www.w3.org/1999/xlink" x="0px" y="0px"
	 viewBox="0 0 68.73 68.72" style="enable-background:new 0 0 68.73 68.72;" xml:space="preserve">
<style type="text/css">
	.st0{fill:#FFFFFF;}
</style>
<path class="st0" d="M24.79,26.89l-3.63-3.63c-5.38,6.39-5.38,15.76,0,22.15l3.63-3.63C21.38,37.42,21.38,31.26,24.79,26.89z"/>
<path class="st0" d="M41.76,24.81l3.63-3.63c-6.39-5.38-15.76-5.38-22.15,0l3.63,3.63C31.24,21.4,37.4,21.4,41.76,24.81z"/>
<path class="st0" d="M46.44,34.34c0,2.74-0.92,5.33-2.59,7.45l3.63,3.63c2.62-3.1,4.08-6.97,4.08-11.08s-1.46-7.97-4.08-11.08
	l-3.63,3.63C45.51,29.01,46.44,31.6,46.44,34.34z"/>
<path class="st0" d="M26.87,43.87l-3.63,3.63c3.19,2.69,7.12,4.07,11.07,4.07s7.88-1.38,11.07-4.07l-3.63-3.63
	C37.4,47.28,31.24,47.28,26.87,43.87z"/>
</svg>
